# xmcd
#
# Track frame offsets: 
#        150
#        14438
#        27629
#        43745
#        54205
#        67647
#        79602
#        98956
#        109496
#        123811
#
# Disc length: 1887 seconds
#
# Revision: 0
# Processed by: cddbd v1.5.2PL0 Copyright (c) Steve Scherf et al.
# Submitted via: ExactAudioCopy v0.99pb5
#
DISCID=79075d0a
DTITLE=JJ Kent - The Other Side of JJ Kent
DYEAR=2009
DGENRE=Country
TTITLE0=Two Cups of Coffee
TTITLE1=A Double Gift
TTITLE2=Pathway Of A Fool
TTITLE3=Free Spirit
TTITLE4=Candle In The Night
TTITLE5=A Little Bit Of Lovin'
TTITLE6=I Just Didn't Know
TTITLE7=My Favorite Song
TTITLE8=Oh What A Woman
TTITLE9=Wishing We Had
EXTD=
EXTT0=
EXTT1=
EXTT2=
EXTT3=
EXTT4=
EXTT5=
EXTT6=
EXTT7=
EXTT8=
EXTT9=
PLAYORDER=
